<svg xmlns="http://www.w3.org/2000/svg" viewBox="0 0 64 64" role="img" aria-label="Ibn Arabi favicon">
  <defs>
    <linearGradient id="gold" x1="8%" y1="8%" x2="92%" y2="92%">
      <stop offset="0%" stop-color="#e7d8b1"/>
      <stop offset="52%" stop-color="#b7924b"/>
      <stop offset="100%" stop-color="#7f5e2d"/>
    </linearGradient>
    <linearGradient id="ink" x1="0%" y1="0%" x2="100%" y2="100%">
      <stop offset="0%" stop-color="#20303c"/>
      <stop offset="100%" stop-color="#0f171d"/>
    </linearGradient>
  </defs>
  <rect width="64" height="64" rx="18" fill="#f6efe2"/>
  <path d="M32 9 48 17v15c0 10.8-6.2 18.7-16 23-9.8-4.3-16-12.2-16-23V17Z" fill="url(#ink)"/>
  <path d="M32 13.5 44.5 19.7v12c0 8.6-4.7 15.2-12.5 19-7.8-3.8-12.5-10.4-12.5-19v-12Z" fill="none" stroke="url(#gold)" stroke-width="2.3"/>
  <path d="M26 24.5h4.2v15H26Zm7.8 0H38v15h-4.2Z" fill="url(#gold)"/>
  <path d="M22.5 43.5c4.2-2.1 7-5.6 9.5-10.9 2.5 5.3 5.3 8.8 9.5 10.9" fill="none" stroke="#d8bf85" stroke-width="1.8" stroke-linecap="round"/>
  <circle cx="32" cy="20.6" r="1.8" fill="#f0e1bb"/>
</svg>
